<?xml version="1.0" encoding="utf-8"?>
<!-- Generator: Adobe Illustrator 16.0.0, SVG Export Plug-In . SVG Version: 6.00 Build 0)  -->
<!DOCTYPE svg PUBLIC "-//W3C//DTD SVG 1.1//EN" "http://www.w3.org/Graphics/SVG/1.1/DTD/svg11.dtd">
<svg version="1.1" id="Layer_1" xmlns="http://www.w3.org/2000/svg" xmlns:xlink="http://www.w3.org/1999/xlink" x="0px" y="0px"
	 width="480px" height="480px" viewBox="0 0 480 480" enable-background="new 0 0 480 480" xml:space="preserve">
<rect x="11.5" y="25.5" fill="#FFFFFF" stroke="#000000" stroke-miterlimit="10" width="451" height="435"/>
<title>codewars</title>
<desc>Created with Sketch.</desc>
<g id="Page-1">
	<g id="vendor-codewars" transform="translate(-40.000000, -40.000000)">
		<path id="codewars" d="M479.473,40.32H80.114c-22,0-40,18-40,40v399.36c0,22,18,40,40,40h399.359c22,0,40-18,40-40V80.32
			C519.473,58.32,501.473,40.32,479.473,40.32z M488.56,325.193c-1.974,1.942-3.854,3.982-6.526,6.754
			c3.851,23.133-11.301,36.854-27.917,49.686c-17.307,13.363-34.62,26.725-52.14,39.807c-3.91,2.92-8.688,4.679-13.104,6.987
			c-10.912,30.138-15.029,33.84-38.152,33.313c-5.533,14.873-16.52,20.797-32.503,16.597c-1.062-0.277-2.707-1.214-3.062-0.854
			c-15.543,15.985-33.38,3.667-49.572,2.612c-11.967-0.775-24.094-8.46-34.877-15.127c-9.109-5.633-15.558-15.988-28.506-12.992
			c-0.494,0.112-1.2-0.015-1.607-0.308c-12.483-9.037-27.573-3.485-40.236-6.892c-16.427-4.408-31.029-15.889-46.065-24.905
			c-2.265-1.356-2.71-5.845-3.854-8.935c-0.767-2.068-0.772-5.719-1.985-6.133c-16.422-5.604-15.802-21.217-21.233-33.71
			c-5.057-11.624-8.567-22.013-2.16-34.083c1.513-2.851,1.446-7.623,0.163-10.697c-8.283-19.789-8.46-19.723-6.427-39.402
			c-16.986-14.477-19.483-25.47-5.681-42.91c-5.532-12.523-8.315-25.18,6.79-34.233c1.131-0.677,1.508-2.88,1.906-4.454
			c4.927-19.336,19.54-31.497,34.87-41.006c14.057-8.717,31.17-10.897,40.434-28.483c3.464-6.577,14.203-10.427,16.363-20.433
			c0.51-2.363,3.137-4.693,5.363-6.184c11.07-7.41,24-11.22,34.116-21.22c4.25-4.197,16.106-0.697,27.359-0.697
			c14.95-18.673,35.483-3.494,54.443-1.07c8.97,1.144,16.99,9.13,25.644,13.624c3.804,1.977,8.048,3.26,12.229,4.293
			c2.634,0.65,5.88-0.563,8.243,0.463c13.294,5.77,26.536,9.53,41.01,3.946c1.982-0.763,6.431,0.744,7.566,2.557
			c9.301,14.863,28.134,10.063,39.521,19.72c3.272,2.777,3.797,8.793,6.022,14.44c10.885,3.557,22.765,7.847,19.891,24.15
			c11.664,7.197,4.029,22.374,12.732,30.793c-9.187,20.077,12.23,36.81,6.214,57.88c2.851,1.974,7.149,3.78,9.678,6.983
			c3.626,4.604,9.739,12.593,8.217,15.023C482.412,294.982,502.6,311.363,488.56,325.193z M275.114,143.253
			c-22.127,8.193-22.394,8.586-17.449,28.427c-10.757,4.783-17.261,12.573-11.58,25.64c0.72,1.66,0.29,4.767-0.87,6.13
			c-5.09,5.966-4.12,11.493-1.49,18.403c1.45,3.81-1.398,9.256-2.3,13.9c4.727,6.503,9.851,12.71,13.891,19.557
			c1.518,2.567,1.896,8.363,0.344,9.597c-2.396,1.9-7.508,2.527-10.41,1.263c-11.586-5.033-23.756-9.66-33.773-17.06
			c-7.836-5.79-13.323-15.113-18.903-23.497c-4.072-6.12-6.603-13.267-11.325-23.086c1.05-2.087,3.797-7.247,6.257-12.54
			c1.732-3.727,5.26-8.443,4.192-11.307c-3.141-8.417,2.87-14.897,3.004-21.753c0.34-17.757,19.964-21.354,23.536-35.93
			c18.983-8.363,36.536-22.126,59.496-15.316c3.562,1.057,7.453,0.986,10.707,1.38c4.133,8.37-0.315,12.997-4.51,18.5
			C280.093,130.593,278.107,137.037,275.114,143.253z M412.607,158.73c8.387,7.427,14.843,13.146,22.149,19.617
			c1.787,7.903,3.834,16.943,5.877,25.98c-1.127,0.883-2.25,1.763-3.377,2.646c-14.739-9.61-33.456,1.054-47.71-11.437
			c-1.083-0.95-3.243-1.243-4.776-1.01c-14.276,2.176-29.26,2.483-42.62,7.28c-25.195,9.04-48.25,22.383-64.318,48.277
			c-11.023-11.684-10.907-23.68-8.388-35.553c2.434-11.467,6.514-22.583,10.16-34.827c13.934,0.157,13.313-12.917,17.116-20.646
			c31-11.913,60.815-24.907,95.89-12.553C395.93,154.21,402.365,162.184,412.607,158.73z M278.507,294.48
			c12.369,26.77,3.42,50.246-7.74,72.365c-4.771,6.283-9.565,12.545-14.29,18.86c-1.315,1.76-2.42,5.289-3.617,5.286
			c-16.68-0.036-26.64,16.554-44.198,16.377c-14.084-0.141-27.497,2.529-41.91-2.377c-16.854-5.739-30.312-14.46-42.884-26.881
			c-10.283-10.155-12.986-20.069-9.276-33.278h33.776c8.087,9.873,19.539,15.263,34.322,6.463c2.435-1.45,6.313-0.319,9.483-0.717
			c6.41-0.804,12.877-1.453,19.153-2.883c6.202-1.41,12.202-3.718,18.297-5.61c2.097-0.65,4.815-0.617,6.217-1.967
			c8.837-8.514,17.536-17.184,25.97-26.098C267.11,308.416,271.866,302.297,278.507,294.48z M141.88,176.04
			c-1.573,13.856,0.137,24.713,13.16,31.457c-5.113,14.38-6.077,27.023,11.626,32.157c0.982,0.283,2.514,1.12,2.569,1.8
			c1.313,15.793,15.16,17.45,25.287,24.427c16.196,11.164,32.356,18.29,52.221,15.932c3.25-0.388,6.742,1.252,10.438,2.02
			c-2.006,15.938-14.105,23.424-23.949,26.938c-18.674,6.662-37.637,18.883-59.517,8.209c-4.188-2.039-10.667,0.617-14.354,0.95
			c-22.834-10.61-33.804-32.593-52.949-46.733c0.913-9.907,8.27-21.52-4.283-28.207C105.213,214.763,116.033,191.106,141.88,176.04z
			 M419.96,379.24c-2.138-5.713-5.48-10.084-4.79-13.678c2.108-10.992-2.215-18.271-11.697-24.293
			c4.363-13.42-0.233-23.261-12.25-30.402c-2.71-1.61-5.007-5.83-5.387-9.094c-1.086-9.297-5.968-13.78-14.916-14.896
			c-2.653-0.33-6.32-0.777-7.607-2.557c-12.913-17.847-32.937-17.527-51.579-20.768c-4.494-0.78-9.014-1.396-13.982-2.157
			c1.373-16.03,14.243-20.67,22.612-23.75c19.144-7.043,40.01-16.643,60.503-7.91c16.32,6.957,36.396,8.133,47.17,26.42
			c3.308,5.617,10.928,8.689,16.551,12.91c3.152,9.7,6.46,19.868,10.276,31.607v32.851
			C446.103,346.77,439.426,365.105,419.96,379.24z M230.09,435.27c31.243,0.42,34.583-1.615,41.604-24.612
			c13.311-4.431,24.743-11.373,24.91-28.416c0.021-2.08,3.229-4.123,4.96-6.19c2.098-2.507,5.713-4.828,6.043-7.554
			c2.453-20.304,6.833-40.728-0.279-60.979c-2.819-8.029-5.974-15.942-10.184-27.12c8.18,0.823,13.616,0.316,18.243,2.017
			c19.673,7.22,35.426,20.427,47.738,36.784c5.795,7.695,7.327,18.596,11.725,30.6c-4.84,7.123-7.097,17.446,1.87,27.92
			c-11.808,9.566-17.94,20.82-16.037,33.867c-9.354,8.977-17.837,17.123-28.77,27.619c-6.095,2.713-15.851,7.054-25.033,11.137
			c-7.913,1.49-15.646,3.656-23.493,4.217c-7.554,0.537-16.71,1.903-22.511-1.55C251.243,447.268,235.78,451.598,230.09,435.27z"/>
	</g>
</g>
</svg>
