<?xml version="1.0" encoding="utf-8"?>
<!-- Generator: Adobe Illustrator 16.0.0, SVG Export Plug-In . SVG Version: 6.00 Build 0)  -->
<!DOCTYPE svg PUBLIC "-//W3C//DTD SVG 1.1//EN" "http://www.w3.org/Graphics/SVG/1.1/DTD/svg11.dtd">
<svg version="1.1" id="Layer_1" xmlns="http://www.w3.org/2000/svg" xmlns:xlink="http://www.w3.org/1999/xlink" x="0px" y="0px"
	 width="479.358px" height="479.359px" viewBox="66.304 168.267 479.358 479.359"
	 enable-background="new 66.304 168.267 479.358 479.359" xml:space="preserve">
<g id="Page-1">
	<g id="vendor-codewars" transform="translate(-40.000000, -40.000000)">
		<path id="codewars" d="M545.663,208.267H146.304c-22,0-40,18-40,40v399.359c0,22,18,40,40,40h399.358c22,0,40-18,40-40V248.267
			C585.663,226.267,567.663,208.267,545.663,208.267z"/>
	</g>
</g>
<g>
	<ellipse fill="#FFFFFF" cx="254.027" cy="457.833" rx="21.858" ry="29.183"/>
	<path fill="#FFFFFF" d="M209.73,519.802c19.067,10,39.763,13.953,61.039,14.65c19.184,0.697,38.251,0.115,57.436,0.232
		c19.184,0.115,38.135-1.629,56.505-7.559c18.37-6.045,34.298-15.695,46.622-30.809c17.789-21.975,23.37-47.785,24.532-75.224
		c0.931-20.928-3.371-40.577-15.695-57.784c-4.884-7.092-7.674-13.022-7.558-22.207c0.232-13.72-2.79-27.671-5.232-41.391
		c-0.813-4.767-2.558-9.301-4.186-13.72c-1.278-3.372-4.999-5.464-8.487-4.767c-2.209,0.465-4.302,0.93-6.162,1.627
		c-20.346,6.744-39.297,16.51-57.435,27.904c-2.441,1.512-5.93,2.093-8.953,1.86c-7.092-0.465-13.951-2.209-21.044-2.558
		c-17.439-0.814-34.763-0.349-52.087,2.674c-2.441,0.465-5.58,0-7.557-1.279c-19.766-12.79-40.345-23.718-63.481-29.88
		c-3.488-0.93-7.092-0.465-7.906,0.93c-0.581,0.814-1.046,1.744-1.278,2.674c-2.559,8.836-5.465,17.556-6.977,26.508
		c-1.743,10.696-3.371,21.742-2.558,32.438c0.465,6.744-1.396,10.813-4.999,15.58c-12.324,15.813-17.905,34.066-18.254,54.064
		c-0.349,17.089,1.977,33.716,7.208,49.994C171.13,488.759,186.594,507.595,209.73,519.802z M213.683,413.537
		c6.278-5.35,13.254-8.721,21.509-9.186c9.068-0.581,18.138-1.744,27.322-1.627c22.904,0.232,45.809,1.395,68.713,1.627
		c10.464,0.117,21.044-2.325,31.392-1.744c9.418,0.581,19.417,2.325,27.904,6.162c14.301,6.277,21.974,19.183,24.299,34.181
		c3.488,22.557-1.162,42.902-19.184,58.482c-8.255,7.092-18.254,10.463-28.602,12.904c-20.229,4.885-40.809,6.047-61.504,5.117
		c-20.463,0.93-40.577-0.35-60.458-5.117c-14.649-3.486-28.021-9.301-37.321-21.857
		C192.872,472.482,189.151,434.347,213.683,413.537z"/>
	<ellipse fill="#FFFFFF" cx="358.317" cy="457.833" rx="21.858" ry="29.183"/>
</g>
</svg>
